<svg viewBox="0 0 24 24" xmlns="http://www.w3.org/2000/svg"><path fill="#C5C5C5" fill-rule="evenodd" d="M12 2.5c-5.238 0-9.5 4.262-9.5 9.5 0 5.23 4.262 9.5 9.5 9.5 5.23 0 9.5-4.27 9.5-9.5 0-5.24-4.27-9.5-9.5-9.5Zm2.24 17.69c-.01-.03-.02-.06-.02-.08 0-.3.01-1.27.01-2.47 0-.84-.29-1.39-.61-1.67 2-.22 4.11-.98 4.11-4.44 0-.98-.35-1.78-.93-2.41 .1-.23.41-1.15-.08-2.39 0 0-.76-.24-2.48.93 -.72-.2-1.49-.3-2.25-.31 -.77.01-1.54.11-2.25.31 -1.72-1.17-2.48-.93-2.48-.93 -.49 1.24-.18 2.16-.09 2.39 -.57.63-.92 1.43-.92 2.41 0 3.45 2.1 4.22 4.1 4.45 -.26.22-.49.62-.57 1.2 -.52.23-1.82.63-2.62-.75 0 0-.48-.86-1.38-.92 0 0-.88-.01-.06.54 0 0 .59.28 1 1.32 0 0 .52 1.61 3.03 1.06 0 .75.01 1.46.01 1.68 0 .02-.01.05-.02.08C6.14 19.2 3.48 15.91 3.48 12c-.001-4.69 3.81-8.5 8.5-8.5 4.68 0 8.5 3.81 8.5 8.5 0 3.9-2.66 7.2-6.256 8.19Z"/></svg>