<svg viewBox="0 0 24 24" xmlns="http://www.w3.org/2000/svg"><path fill="#C5C5C5" d="M18 4.5H6C3.71 4.5 2.5 5.71 2.5 8v9c0 2.29 1.21 3.5 3.5 3.5h12c2.29 0 3.5-1.21 3.5-3.5V8c0-2.29-1.21-3.5-3.5-3.5ZM20.5 17c0 1.72-.78 2.5-2.5 2.5H6c-1.729 0-2.5-.78-2.5-2.5V8c0-1.729.77-2.5 2.5-2.5h12c1.72 0 2.5.77 2.5 2.5Zm-2.6-8.294v0c.16.22.11.53-.11.69 -.01 0-.01 0-.01 0l-4.92 3.57h0c-.53.38-1.24.38-1.77 0L6.18 9.386v0c-.21-.19-.22-.51-.03-.71 .15-.17.4-.21.61-.1l4.912 3.57v0c.17.12.41.12.58 0l4.91-3.58v-.001c.22-.17.53-.12.69.1Z"/></svg>