<svg viewBox="0 0 24 24" xmlns="http://www.w3.org/2000/svg"><path fill="#C5C5C5" d="M20.52 15.32l-2.65-1.58v0c-1.17-.7-2.68-.36-3.43.77l-.89 1.31v0c-2.39-1.12-4.3-3.04-5.4-5.416l1.311-.88v0c1.12-.76 1.47-2.26.78-3.423l-1.57-2.64v0c-.44-.74-1.3-1.12-2.14-.94v0c-1.38.27-2.59 1.11-3.33 2.31v0c-.73 1.16-.94 2.58-.57 3.91L2.63 8.74c1.69 6.09 6.46 10.86 12.56 12.55v0c1.32.36 2.74.16 3.9-.57v0c1.19-.75 2.03-1.95 2.31-3.33v0c.16-.84-.21-1.68-.94-2.12Zm-.05 1.91v0c-.23 1.1-.9 2.07-1.86 2.66v0c-.93.58-2.07.74-3.12.45h0c-5.77-1.6-10.27-6.1-11.87-11.86l0 0c-.3-1.06-.13-2.19.45-3.12v0c.59-.97 1.56-1.64 2.68-1.87v0c.06-.02.13-.03.2-.02v0c.35-.01.68.18.86.49L9.36 6.6l0-.001c.42.7.21 1.62-.48 2.08l-1.66 1.1v0c-.2.13-.28.38-.19.609l-.001-.001c1.22 2.92 3.55 5.26 6.48 6.5v0c.22.09.47.01.6-.19l1.11-1.67h-.001c.45-.69 1.37-.9 2.08-.47l2.64 1.57v0c.36.21.54.63.46 1.05Z"/></svg>